<svg width="17" height="21" viewBox="0 0 17 21" fill="none" xmlns="http://www.w3.org/2000/svg">
<g clip-path="url(#clip0_1_1146)">
<path d="M14.1272 11.0997C14.1272 9.36917 15.059 7.85951 16.4413 7.05995C15.7195 6.16084 14.6337 5.35506 13.4367 5.11862C11.8046 4.79584 10.8735 5.33329 10.2712 5.54873C9.66893 5.76417 8.86893 5.95784 8.86893 5.95784C8.86893 5.95784 8.0697 5.76417 7.46663 5.54873C6.8651 5.33329 5.93406 4.79506 4.30188 5.11784C2.6697 5.44062 1.24441 6.82273 0.665098 8.05473C-0.452143 10.4324 0.00762706 13.4237 0.796899 15.5751C1.5854 17.7272 3.67046 20.7341 5.28732 20.976C6.43751 21.1478 7.14939 20.3413 8.86893 20.1367C10.5885 20.3413 11.3003 21.1478 12.4505 20.976C14.0674 20.7341 16.1525 17.7272 16.941 15.5751C16.9601 15.5222 16.98 15.4677 16.9992 15.4133C15.3157 14.7273 14.1272 13.0543 14.1272 11.0997ZM8.4605 4.72506C8.4605 4.72506 10.0597 4.94051 11.5118 3.26673C12.9639 1.59295 12.5509 0.00939645 12.5509 0.00939645C12.5509 0.00939645 10.9517 -0.206048 9.49958 1.46773C8.04747 3.14151 8.4605 4.72506 8.4605 4.72506Z" fill="white"/>
</g>
<defs>
<clipPath id="clip0_1_1146">
<rect width="17" height="21" fill="white"/>
</clipPath>
</defs>
</svg>
