<svg width="22" height="22" viewBox="0 0 22 22" fill="none" xmlns="http://www.w3.org/2000/svg">
<g clip-path="url(#clip0_1_1134)">
<rect width="22.0002" height="22.0002" fill="white"/>
<path fill-rule="evenodd" clip-rule="evenodd" d="M14.1757 11.246L19.9376 6.30701V15.7733L14.1757 11.246ZM8.88876 12.1584L10.5525 13.5849C10.8103 13.8056 11.1898 13.8056 11.4477 13.5849L13.1114 12.1584L18.6369 16.5006H3.36191L8.88876 12.1584ZM11.0001 12.1576L3.23333 5.5005H18.7668L11.0001 12.1576ZM2.06251 6.30768L7.82449 11.246L2.06251 15.7733V6.30768ZM21.3127 17.1881V4.81299C21.3127 4.42799 20.9558 4.12549 20.6252 4.12549H1.37501C1.02713 4.12549 0.6875 4.42387 0.6875 4.81299V17.1881C0.6875 17.549 1.01544 17.8756 1.37501 17.8756H20.6252C21.0115 17.8756 21.3127 17.5339 21.3127 17.1881Z" fill="#181433"/>
</g>
<defs>
<clipPath id="clip0_1_1134">
<rect width="22.0002" height="22.0002" fill="white"/>
</clipPath>
</defs>
</svg>
