<svg width="24" height="24" viewBox="0 0 24 24" fill="none" xmlns="http://www.w3.org/2000/svg">
<path d="M5.99903 2.99072C5.95003 2.99072 5.72804 3.02773 5.65504 3.05373C5.39504 3.14473 5.19903 3.32073 5.09303 3.55373L2.18403 9.38572C2.18403 9.38572 2.00604 9.62672 1.99904 9.99372C1.99204 10.3607 2.26204 10.6537 2.26204 10.6537L11.218 21.6237C11.618 22.1127 12.38 22.1127 12.78 21.6237C13.059 21.2827 21.771 10.6047 21.771 10.6047C21.771 10.6047 21.993 10.3227 21.999 9.99372C22.006 9.66472 21.831 9.43174 21.831 9.43174L18.905 3.55373C18.799 3.32073 18.603 3.14473 18.343 3.05373C18.27 3.02773 18.049 2.99072 17.999 2.99072H5.99903ZM7.40504 4.99173H16.593L15.187 8.99372H8.81202L7.40504 4.99173ZM5.84303 6.55472L6.71803 8.99372H4.62403L5.84303 6.55472ZM18.155 6.55472L19.374 8.99372H17.28L18.155 6.55472ZM5.12403 10.9937H7.40504L9.15504 15.9337L5.12403 10.9937ZM9.53004 10.9937H14.468L11.999 17.9977L9.53004 10.9937ZM16.593 10.9937H18.874C17.916 12.1647 16.526 13.8797 14.843 15.9337L16.593 10.9937Z" fill="black"/>
</svg>
