<svg width="17" height="20" viewBox="0 0 17 20" fill="none" xmlns="http://www.w3.org/2000/svg">
<path d="M1.56741 1.00003C1.90208 0.956577 2.24145 1.03081 2.52741 1.21003L12.2774 6.75253L9.80991 9.25003L1.56741 1.00003ZM0.81741 1.75003C0.77039 1.91331 0.747646 2.08262 0.74991 2.25253V17.7475C0.747646 17.9174 0.77039 18.0867 0.81741 18.25L9.06741 10L0.81741 1.75003ZM9.81741 10.75L1.56741 19C1.90224 19.0474 2.24295 18.9729 2.52741 18.79L12.2774 13.2475L9.81741 10.75ZM16.2074 8.99503L13.2524 7.31503L10.5524 10L13.2449 12.6925L16.1999 11.0125C17.1749 10.4575 17.1749 9.54253 16.1999 8.98753L16.2074 8.99503Z" fill="white"/>
</svg>
