<svg width="138" height="18" viewBox="0 0 138 18" fill="none" xmlns="http://www.w3.org/2000/svg">
<path d="M59.9118 11.7542H68.9743L64.1824 4.04477L55.3876 17.9838H51.3849L62.0823 1.24005C62.5475 0.563535 63.3226 0.154816 64.1824 0.154816C65.0139 0.154816 65.7891 0.549448 66.2401 1.21187L76.9798 17.9838H72.9771L71.0885 14.869H61.9132L59.9118 11.7542ZM101.489 14.869V0.323945H98.0927V16.2925C98.0927 16.7295 98.2619 17.1523 98.586 17.4764C98.9101 17.8006 99.3471 17.9838 99.8263 17.9838H115.316L117.317 14.869H101.489ZM45.2963 12.2616C48.5944 12.2616 51.2722 9.59785 51.2722 6.29983C51.2722 3.00182 48.5944 0.323945 45.2963 0.323945H30.4368V17.9838H33.8322V3.43874H45.0708C46.6494 3.43874 47.9178 4.72129 47.9178 6.29983C47.9178 7.87837 46.6494 9.16094 45.0708 9.16094L35.4953 9.14684L45.6345 17.9838H50.5675L43.746 12.2616H45.2963ZM9.53541 17.9838C4.66022 17.9838 0.703979 14.0375 0.703979 9.16094C0.703979 4.28438 4.66022 0.323945 9.53541 0.323945H19.8001C24.6766 0.323945 28.63 4.28438 28.63 9.16094C28.63 14.0375 24.6766 17.9838 19.8001 17.9838H9.53541ZM19.5717 14.869C22.7303 14.869 25.2883 12.318 25.2883 9.16094C25.2883 6.00386 22.7303 3.43874 19.5717 3.43874H9.76228C6.6052 3.43874 4.04566 6.00386 4.04566 9.16094C4.04566 12.318 6.6052 14.869 9.76228 14.869H19.5717ZM84.0691 17.9838C79.1925 17.9838 75.2321 14.0375 75.2321 9.16094C75.2321 4.28438 79.1925 0.323945 84.0691 0.323945H96.2605L94.2732 3.43874H84.2946C81.1375 3.43874 78.5724 6.00386 78.5724 9.16094C78.5724 12.318 81.1375 14.869 84.2946 14.869H96.5423L94.541 17.9838H84.0691ZM125.604 14.869C122.997 14.869 120.784 13.1214 120.108 10.7113H134.625L136.626 7.59648H120.108C120.784 5.20049 122.997 3.43874 125.604 3.43874H135.569L137.584 0.323945H125.379C120.502 0.323945 116.542 4.28438 116.542 9.16094C116.542 14.0375 120.502 17.9838 125.379 17.9838H135.851L137.852 14.869H125.604Z" fill="#EA1B22"/>
</svg>
