<svg width="138" height="22" viewBox="0 0 138 22" fill="none" xmlns="http://www.w3.org/2000/svg">
<path d="M130.325 9.79239V12.6519H132.334V15.4889C132.34 15.7062 132.33 15.9382 132.3 16.1378L132.283 16.2346C132.28 16.2562 132.276 16.2785 132.271 16.3012L132.255 16.371C132.252 16.3829 132.248 16.3948 132.245 16.4069L132.222 16.4805C132.041 17.0029 131.497 17.6649 130.274 17.6649C128.972 17.6649 128.449 16.9049 128.306 16.371L128.289 16.3012L128.277 16.2346C128.241 16.0159 128.226 15.7425 128.226 15.4889V6.52808C128.226 6.24634 128.242 5.94092 128.293 5.69211L128.328 5.54091C128.33 5.53044 128.333 5.51979 128.336 5.50899L128.355 5.4424C128.358 5.43102 128.362 5.41951 128.366 5.40787L128.391 5.33669C128.577 4.84159 129.068 4.1822 130.264 4.1822C131.186 4.1822 131.683 4.55822 131.949 4.94686L131.996 5.01979C132.011 5.04409 132.025 5.06835 132.038 5.09248L132.075 5.1644L132.108 5.23502L132.136 5.30381L132.16 5.37023L132.181 5.43376L132.198 5.49385L132.212 5.54998L132.223 5.60161C132.229 5.62729 132.233 5.65455 132.238 5.68289L132.249 5.77067C132.251 5.78567 132.253 5.80082 132.254 5.81605L132.266 5.95368L132.274 6.08568L132.281 6.26566L132.283 6.3579V7.446H137.221L137.222 6.76865L137.225 6.52641L137.224 6.33863L137.22 6.11998L137.216 6.00227L137.207 5.8188L137.194 5.63085L137.183 5.50519C136.849 2.19504 134.361 0.921485 131.334 0.699875L131.131 0.686649L130.927 0.676475C130.825 0.67214 130.722 0.668925 130.619 0.666794L130.411 0.663966C130.377 0.663616 130.342 0.663616 130.307 0.663616L130.099 0.665036C130.064 0.665511 130.03 0.666106 129.995 0.666822L129.789 0.672589L129.584 0.681332L129.381 0.693116L129.18 0.708003C129.113 0.71349 129.046 0.719504 128.98 0.726057L128.782 0.74734C128.749 0.75116 128.716 0.755117 128.684 0.759213L128.489 0.78546C128.037 0.850632 127.601 0.943474 127.189 1.0676L127.014 1.12273C125.1 1.7504 123.71 3.08489 123.425 5.50519L123.395 5.77385L123.375 5.98187L123.356 6.19995L123.34 6.41692C123.331 6.55871 123.326 6.69229 123.326 6.80275L123.326 15.1516L123.328 15.2552L123.332 15.4127L123.337 15.5231L123.344 15.641L123.352 15.7693L123.364 15.9105L123.386 16.1529L123.404 16.3389C123.681 19.4149 126.013 20.7832 128.865 21.1061L129.065 21.1269C129.4 21.1588 129.741 21.1768 130.086 21.1819L130.293 21.1835L130.502 21.1819C130.849 21.1768 131.192 21.1588 131.527 21.1269L131.728 21.1061C134.59 20.7832 136.906 19.4149 137.188 16.3389L137.211 16.0676L137.228 15.8381L137.243 15.581L137.252 15.3595L137.26 15.0458V9.79239H130.325ZM96.2781 1.19105H91.3195V15.6956C91.3273 15.9484 91.3195 16.2324 91.2759 16.4406L91.2613 16.5037L91.2432 16.5709C91.2366 16.5939 91.2293 16.6175 91.2214 16.6416L91.1954 16.7151C91.0084 17.2138 90.5318 17.8645 89.3918 17.8645C88.3227 17.8645 87.8345 17.2773 87.6301 16.791L87.6001 16.7151C87.5955 16.7027 87.5911 16.6903 87.5868 16.678L87.5634 16.6058L87.5441 16.5368C87.5412 16.5256 87.5385 16.5146 87.5359 16.5037L87.5222 16.4406C87.4726 16.2324 87.4663 15.9484 87.4726 15.6956V1.19105H82.5155V15.2455L82.5146 15.3585L82.5163 15.556L82.5232 15.8467L82.5368 16.2001L82.5463 16.3779L82.5528 16.4723L82.559 16.5418C82.8019 19.142 84.3274 20.4955 86.4818 21.0619L86.6653 21.1079C87.0662 21.2035 87.4875 21.2732 87.9252 21.3197L88.1284 21.3396L88.3339 21.3562L88.5415 21.3697C88.6458 21.3757 88.7509 21.3804 88.8568 21.3841L89.0694 21.3899L89.2839 21.3928C89.3198 21.3932 89.3557 21.3932 89.3918 21.3932L89.6076 21.3917C89.6434 21.3913 89.6791 21.3907 89.7148 21.3899L89.9278 21.3841C90.0338 21.3804 90.1391 21.3757 90.2436 21.3697L90.4515 21.3562L90.6573 21.3396L90.8608 21.3197C93.761 21.0118 95.9364 19.6914 96.2361 16.5418L96.2401 16.5105L96.2482 16.428L96.2602 16.2634L96.2709 16.0643L96.2768 15.9203L96.2828 15.6995L96.2845 15.556L96.284 15.4212L96.2808 15.2997C96.28 15.2808 96.2791 15.2627 96.2781 15.2455V1.19105ZM50.7173 1.19105L48.2438 16.5171L45.7718 1.19105H37.7732L37.3489 20.7975H42.2492L42.3819 2.64722L45.7534 20.7975H50.7251L54.0997 2.64722L54.2329 20.7975H59.1455L58.7069 1.19105H50.7173ZM21.1027 1.19105L17.4708 20.7975H22.7671L25.5039 2.64722L28.1751 20.7975H33.4346L29.8178 1.19105H21.1027ZM113.608 16.9766L108.99 1.19105H101.715V20.5931H106.528L106.248 4.30254L111.207 20.5931H118.185V1.19105H113.34L113.608 16.9766ZM69.0872 6.2937C69.0001 5.90649 69.0252 5.49512 69.0703 5.28012C69.0831 5.22306 69.0981 5.16553 69.1159 5.10809L69.1447 5.02206C69.3403 4.47852 69.7979 3.96795 70.8472 3.96795C71.9796 3.96795 72.6435 4.67388 72.6435 5.73328V6.93216H77.4773V5.56561C77.4773 2.48172 75.4589 1.29541 73.3023 0.879626L73.1248 0.847164L72.9468 0.818032L72.7688 0.792093L72.5908 0.769206L72.4131 0.749234L72.2359 0.732036C72.1769 0.72675 72.1181 0.721904 72.0595 0.717474L71.8841 0.705409L71.7099 0.695701L71.5372 0.688212L71.3662 0.682802L71.1972 0.679332L70.9477 0.677462L70.8377 0.67785L70.619 0.68097C70.5827 0.681753 70.5465 0.682668 70.5103 0.683716L70.2945 0.691612C70.2229 0.694782 70.1516 0.698494 70.0807 0.702756L69.869 0.717201C66.92 0.942777 64.6188 2.15408 64.1585 4.99462C64.0223 5.85967 63.9886 6.62753 64.2053 7.60737C64.5465 9.21752 65.8879 10.3633 67.4276 11.3243L67.6659 11.4708C67.7058 11.4949 67.7459 11.519 67.786 11.543L68.0279 11.6854L68.2712 11.8256L68.5154 11.9636L68.8818 12.1671L69.8447 12.6948L70.0787 12.8245L70.3086 12.9538L70.5339 13.0829L70.7539 13.212C71.8033 13.8366 72.6441 14.4699 72.9466 15.2271C73.1141 15.6769 73.0775 16.244 72.9965 16.6058L72.9826 16.6641C72.9626 16.7511 72.9375 16.8382 72.9059 16.9237L72.872 17.0087C72.6493 17.529 72.1625 17.9725 71.0929 17.9725C69.8729 17.9725 69.1385 17.2711 69.1385 16.214L69.137 14.3324H63.9342V15.8281C63.9342 19.3386 66.1614 20.8636 68.9509 21.3163L69.1585 21.3479C69.2976 21.3677 69.438 21.3849 69.5794 21.3996L69.7923 21.42C70.0415 21.4416 70.2938 21.4558 70.5479 21.4633L70.7661 21.4681C70.8026 21.4687 70.8391 21.4691 70.8756 21.4693L70.9852 21.4697C71.0581 21.4697 71.1308 21.4692 71.2032 21.4682L71.4196 21.4634C71.4555 21.4624 71.4913 21.4612 71.5271 21.4599L71.7408 21.4503C71.8117 21.4466 71.8822 21.4423 71.9525 21.4375L72.1621 21.4213C72.3012 21.4094 72.4389 21.3953 72.575 21.3788L72.778 21.3524L72.9786 21.3225C73.045 21.3119 73.1111 21.3008 73.1766 21.289L73.3721 21.252C75.7334 20.7788 77.4903 19.496 77.8431 17.0294C77.8917 16.6616 77.9215 16.3218 77.9376 16.0113L77.9464 15.8085C77.9475 15.7755 77.9485 15.7428 77.9493 15.7105L77.9526 15.5208V15.34L77.9495 15.1681L77.9439 15.0051L77.936 14.8512C77.9345 14.8262 77.933 14.8017 77.9313 14.7776L77.9206 14.6372L77.9084 14.5061L77.895 14.3842L77.8735 14.2188L77.8512 14.0747L77.8221 13.9158L77.8086 13.8507C77.4681 12.1434 75.9734 10.9374 74.3128 9.94473L74.0745 9.80433L73.8346 9.66666L73.5938 9.53151L73.2321 9.33312L72.7524 9.07571L71.9344 8.64059L71.5977 8.45846C71.5609 8.43833 71.5243 8.41823 71.488 8.39816L71.2726 8.27803L71.0633 8.15838C70.0329 7.56099 69.2542 6.97443 69.0872 6.2937ZM5.32347 6.24561C5.23449 5.87505 5.2484 5.48525 5.29405 5.25874L5.31294 5.17393L5.33439 5.09001C5.49769 4.50127 5.94415 3.89444 7.09812 3.89444C8.24488 3.89444 8.92009 4.60717 8.92009 5.67513V6.8886H13.8105V5.51123C13.8105 2.56835 11.9797 1.33243 9.93398 0.848967L9.75559 0.808801C9.60654 0.77687 9.45661 0.748746 9.30641 0.724064L9.12609 0.696075L8.94574 0.671251L8.7656 0.649454L8.58592 0.630543C8.52613 0.624705 8.46645 0.619324 8.40693 0.614379L8.22886 0.600823L8.05194 0.589735L7.87642 0.580976L7.70254 0.574406L7.53052 0.569886L7.27651 0.566437H7.19303C7.11971 0.566437 7.04668 0.566949 6.97394 0.567982L6.75664 0.572652C6.61239 0.576817 6.46939 0.583099 6.32778 0.591563L6.11641 0.605903C6.08136 0.608569 6.0464 0.611373 6.01153 0.614317L5.80345 0.633661C5.73446 0.640673 5.66587 0.648251 5.59767 0.656404L5.3943 0.682594C5.22584 0.705869 5.06 0.732788 4.89699 0.76348L4.70277 0.80213L4.51138 0.844451L4.32291 0.890495C4.26058 0.906468 4.19876 0.92307 4.13746 0.940309L3.95512 0.993945C2.05719 1.57736 0.689447 2.80095 0.344182 4.92413C0.201687 5.80302 0.177266 6.57617 0.383205 7.56684C0.745769 9.27881 2.22449 10.471 3.87882 11.4728L4.12206 11.6181C4.16277 11.6421 4.20356 11.666 4.24442 11.6898L4.49019 11.8314L4.86028 12.0399L5.35296 12.3117L6.07966 12.7099L6.43268 12.9064L6.77587 13.1023L6.99811 13.2328C7.03466 13.2546 7.07097 13.2763 7.10701 13.2981L7.31999 13.4292C8.22823 13.998 8.93957 14.584 9.21415 15.2709C9.39398 15.7176 9.35193 16.2846 9.26695 16.6581L9.25241 16.7185C9.23143 16.8045 9.20566 16.8906 9.17379 16.9753L9.13985 17.0594C8.91139 17.5889 8.42109 18.043 7.33754 18.043C6.11273 18.043 5.38011 17.3295 5.38011 16.2578L5.37332 14.3711H0.112061V15.8703C0.112061 20.0786 3.28495 21.4618 6.7988 21.5657L7.01884 21.5706L7.2396 21.5722L7.4579 21.5706C7.56663 21.5691 7.67472 21.5664 7.78212 21.5624L7.99596 21.553C8.10241 21.5475 8.20812 21.5407 8.31305 21.5327L8.52185 21.5151L8.72847 21.4941C8.79697 21.4866 8.86508 21.4785 8.93281 21.4698L9.13477 21.4419C9.20169 21.4321 9.26819 21.4216 9.33427 21.4106L9.5312 21.3758C11.9764 20.9179 13.7988 19.6208 14.1657 17.0838C14.2163 16.7214 14.2479 16.3861 14.2655 16.0788L14.2753 15.8781L14.2813 15.6858C14.2826 15.6231 14.2835 15.5618 14.2837 15.5019L14.2831 15.3265L14.2796 15.1597L14.2737 15.0014L14.2656 14.8518L14.2557 14.711L14.2444 14.5789L14.2252 14.3974L14.2046 14.236L14.1768 14.0524L14.1451 13.8744C13.8058 12.1873 12.3556 10.987 10.7241 9.99974L10.4841 9.85676C10.444 9.83317 10.4037 9.8097 10.3634 9.78635L10.1208 9.64757L9.87718 9.51136L9.63326 9.37752L9.38967 9.24587L8.31485 8.67534L7.97114 8.49113L7.74794 8.36943L7.53023 8.24838L7.31868 8.12781C7.28397 8.10774 7.24954 8.08768 7.21541 8.06763L7.01429 7.9474C6.12626 7.40647 5.47417 6.86527 5.32347 6.24561Z" fill="#1428A0"/>
</svg>
